<svg width="135" height="122" viewBox="0 0 135 122" fill="none" xmlns="http://www.w3.org/2000/svg">
<path d="M129.855 24.8174H66.9326V85.0166H129.855V24.8174Z" fill="url(#paint0_linear)"/>
<path d="M82.0541 45.4727C74.8044 45.4727 67.7177 47.3982 61.69 51.0055C55.6623 54.6128 50.9644 59.74 48.1908 65.7386C45.4172 71.7371 44.6923 78.3375 46.1078 84.705C47.5232 91.0726 51.0156 96.9213 56.143 101.511C61.2704 106.101 67.8026 109.226 74.9133 110.491C82.0241 111.756 89.3939 111.104 96.0908 108.618C102.788 106.131 108.511 101.922 112.536 96.5222C116.562 91.1226 118.709 84.775 118.706 78.2825C118.693 69.5817 114.828 61.2409 107.956 55.0898C101.085 48.9388 91.7695 45.48 82.0541 45.4727ZM112.127 78.2825C112.13 83.6096 110.369 88.8179 107.066 93.2486C103.763 97.6793 99.0678 101.133 93.5731 103.174C88.0783 105.215 82.0314 105.75 76.1969 104.712C70.3624 103.675 65.0024 101.111 60.7952 97.3448C56.5879 93.5789 53.7223 88.7802 52.5607 83.5556C51.3991 78.331 51.9936 72.9153 54.2693 67.9934C56.5449 63.0714 60.3995 58.8645 65.3452 55.9046C70.2909 52.9447 76.1057 51.3648 82.0541 51.3648C90.0258 51.3685 97.6701 54.2052 103.308 59.252C108.947 64.2989 112.118 71.1433 112.127 78.2825Z" fill="#0070C1"/>
<path d="M84.631 77.6426V63.6354C84.631 62.8541 84.2844 62.1047 83.6675 61.5522C83.0505 60.9997 82.2139 60.6895 81.3414 60.6895C80.4689 60.6895 79.6323 60.9997 79.0153 61.5522C78.3984 62.1047 78.0518 62.8541 78.0518 63.6354V80.0745L94.7172 94.9989C95.3346 95.5517 96.1718 95.8623 97.0448 95.8623C97.9178 95.8623 98.7551 95.5517 99.3724 94.9989C99.9897 94.4461 100.337 93.6963 100.337 92.9145C100.337 92.1327 99.9897 91.3829 99.3724 90.83L84.631 77.6426Z" fill="#0070C1"/>
<path d="M48.9414 106.493H21.1655C18.7236 106.489 16.3832 105.618 14.658 104.071C12.9328 102.523 11.9639 100.425 11.9639 98.2386V19.3627C11.968 17.1783 12.9387 15.0843 14.6635 13.5397C16.3882 11.9951 18.7263 11.1257 21.1655 11.1221H92.9949C95.4368 11.1221 97.7788 11.9898 99.5069 13.5348C101.235 15.0798 102.208 17.1759 102.212 19.3627V41.9581H95.4931V19.3627C95.4931 19.0641 95.4273 18.7684 95.2992 18.4927C95.1711 18.2169 94.9833 17.9665 94.7468 17.7559C94.5103 17.5454 94.2296 17.3789 93.921 17.2659C93.6123 17.1529 93.2817 17.0958 92.9483 17.0976H21.1189C20.4481 17.0976 19.8047 17.3362 19.3304 17.761C18.8561 18.1858 18.5896 18.762 18.5896 19.3627V98.2386C18.5875 98.5372 18.6515 98.8334 18.7777 99.1098C18.9039 99.3863 19.0898 99.6375 19.3249 99.8493C19.56 100.061 19.8395 100.229 20.1474 100.344C20.4552 100.459 20.7854 100.518 21.1189 100.518H48.9414V106.493Z" fill="#0070C1"/>
<path d="M86.0127 30.2422H27.0938V36.1348H86.0127V30.2422Z" fill="#0070C1"/>
<path d="M44.1472 50.1562H27.0938V56.0635H44.1472V50.1562Z" fill="#0070C1"/>
<defs>
<linearGradient id="paint0_linear" x1="98.3939" y1="24.8174" x2="98.3939" y2="85.0166" gradientUnits="userSpaceOnUse">
<stop stop-color="#FFC700"/>
<stop offset="1" stop-color="white" stop-opacity="0"/>
</linearGradient>
</defs>
</svg>
