<svg width="116" height="105" viewBox="0 0 116 105" fill="none" xmlns="http://www.w3.org/2000/svg">
<path d="M65.0308 28.584H0.097168V90.709H65.0308V28.584Z" fill="url(#paint0_linear)"/>
<path d="M84.6781 23.0927H33.1636C31.8313 23.1004 30.5497 22.6357 29.5986 21.8C28.6475 20.9644 28.1043 19.8257 28.0874 18.6326V4.89389C28.1043 3.70078 28.6475 2.56213 29.5986 1.7265C30.5497 0.890875 31.8313 0.426131 33.1636 0.433802H84.6621C85.9972 0.422319 87.2828 0.885346 88.2374 1.72138C89.1919 2.55741 89.7374 3.69828 89.7543 4.89389V18.5609C89.76 19.1406 89.6369 19.7155 89.3922 20.2522C89.1476 20.7889 88.7862 21.2767 88.3291 21.6872C87.8546 22.1261 87.2876 22.4764 86.6609 22.7176C86.0341 22.9589 85.3602 23.0864 84.6781 23.0927ZM34.5567 17.2845H83.269V6.24195H34.5567V17.2845Z" fill="#0070C1"/>
<path d="M52.2996 33.8336C51.4539 33.833 50.6423 34.1321 50.0418 34.6654L40.2416 43.4418L33.9165 37.7056C33.6294 37.4054 33.2761 37.1615 32.8787 36.9894C32.4814 36.8172 32.0486 36.7205 31.6076 36.7052C31.1665 36.6899 30.7267 36.7565 30.3157 36.9007C29.9047 37.0449 29.5314 37.2636 29.2193 37.5431C28.9072 37.8226 28.663 38.1569 28.502 38.5249C28.341 38.893 28.2666 39.2869 28.2836 39.6819C28.3007 40.0769 28.4088 40.4644 28.601 40.8203C28.7932 41.1761 29.0655 41.4925 29.4008 41.7496L37.9838 49.4505C38.2816 49.7193 38.6358 49.9326 39.0261 50.0783C39.4164 50.2239 39.8349 50.2988 40.2577 50.2988C40.6805 50.2988 41.0991 50.2239 41.4894 50.0783C41.8796 49.9326 42.2339 49.7193 42.5316 49.4505L54.5735 38.6664C54.8732 38.3996 55.111 38.0823 55.2732 37.7328C55.4353 37.3833 55.5186 37.0085 55.5183 36.6301C55.5144 36.253 55.4276 35.8803 55.2627 35.5334C55.0979 35.1864 54.8582 34.872 54.5575 34.608C54.258 34.3504 53.904 34.1491 53.5162 34.016C53.1284 33.883 52.7147 33.821 52.2996 33.8336Z" fill="#0070C1"/>
<path d="M18.9115 16.3382C18.9157 15.9299 19.0997 15.5397 19.4236 15.2523C19.7475 14.965 20.1849 14.8038 20.6408 14.8038H34.5563V8.62305H20.6408C18.3545 8.62304 16.1616 9.43544 14.5434 10.8819C12.9252 12.3284 12.014 14.2907 12.0098 16.3382V34.3354H18.9115V16.3382Z" fill="#0070C1"/>
<path d="M97.136 8.62305H83.2045V14.8039H97.136C97.5904 14.8039 98.0262 14.9655 98.3475 15.2533C98.6689 15.5411 98.8494 15.9314 98.8494 16.3383V96.5171C98.8494 96.9241 98.6689 97.3144 98.3475 97.6022C98.0262 97.8899 97.5904 98.0516 97.136 98.0516H20.6408C20.1849 98.0516 19.7475 97.8904 19.4236 97.603C19.0997 97.3157 18.9157 96.9254 18.9115 96.5171V66.1723H12.0098V96.5171C12.014 98.5647 12.9252 100.527 14.5434 101.974C16.1616 103.42 18.3545 104.232 20.6408 104.232H97.136C99.4208 104.232 101.612 103.42 103.228 101.973C104.843 100.526 105.751 98.5633 105.751 96.5171V16.3383C105.751 14.2921 104.843 12.3297 103.228 10.8828C101.612 9.43588 99.4208 8.62305 97.136 8.62305Z" fill="#0070C1"/>
<path d="M18.9115 40.9463H12.0098V51.7021H18.9115V40.9463Z" fill="#0070C1"/>
<path d="M89.4514 34.0488H61.2041V39.7852H89.4514V34.0488Z" fill="#0070C1"/>
<path d="M89.4514 44.0723H61.2041V49.8086H89.4514V44.0723Z" fill="#0070C1"/>
<defs>
<linearGradient id="paint0_linear" x1="32.564" y1="28.584" x2="32.564" y2="90.709" gradientUnits="userSpaceOnUse">
<stop stop-color="#FFC700"/>
<stop offset="1" stop-color="white" stop-opacity="0"/>
</linearGradient>
</defs>
</svg>
