<svg width="145" height="130" viewBox="0 0 145 130" fill="none" xmlns="http://www.w3.org/2000/svg">
<path d="M57.6826 56.7773L73.4492 111.764L133.349 56.7773H57.6826Z" fill="url(#paint0_linear)"/>
<path d="M132.849 59.0457C133.199 58.7878 133.479 58.4609 133.665 58.0904C133.895 57.687 134.026 57.2443 134.049 56.7919V56.5381H134.249H134.049C134.049 56.5381 134.049 56.4039 134.049 56.3293V56.2546C134.049 56.2546 134.049 56.1651 134.049 56.1203C133.928 55.5016 133.575 54.9381 133.049 54.5231L132.782 54.344L99.8987 27.9702C99.6075 27.6301 99.238 27.3501 98.8153 27.1492C98.4343 26.9587 98.0153 26.837 97.582 26.791H97.082H47.9819C47.1958 26.8067 46.4384 27.0591 45.832 27.5074L12.282 54.3739L12.0152 54.5978C11.5391 54.9935 11.2078 55.5089 11.065 56.0764C10.9222 56.6439 10.9746 57.2368 11.2153 57.7771C11.4299 58.3753 11.8498 58.8976 12.4152 59.2696C18.0986 64.5832 66.9652 110.107 69.9152 112.838C70.2777 113.206 70.7357 113.488 71.2487 113.659H71.4819H71.6153H71.8986H72.0153H72.4319H72.5319V113.838V113.659C73.3999 113.647 74.234 113.356 74.882 112.838L75.1486 112.585L75.3319 112.674L75.182 112.54L132.849 59.0457ZM122.482 59.986L87.6653 92.3304L107.515 59.6727H122.832L122.482 59.986ZM122.132 53.8217H108.082L103.449 38.8958L122.132 53.8217ZM41.7153 38.8958L37.0653 53.8217H22.9819L41.7153 38.8958ZM53.7819 88.987L22.682 60.0309L22.3486 59.7173H37.6486V59.8069L57.4486 92.4647L53.7819 88.987ZM72.582 104.659L72.3987 104.361L43.332 56.5979C43.3482 56.4839 43.3482 56.3686 43.332 56.2546V56.0605L50.5819 32.7613H94.6486L101.199 53.8217H72.382V59.6727H99.982L99.8153 59.9412L72.582 104.659Z" fill="#0070C1"/>
<path d="M65.0004 53.8516H55.417V59.7031H65.0004V53.8516Z" fill="#0070C1"/>
<defs>
<linearGradient id="paint0_linear" x1="95.5159" y1="56.7773" x2="95.5159" y2="111.764" gradientUnits="userSpaceOnUse">
<stop stop-color="#FFC700"/>
<stop offset="1" stop-color="white" stop-opacity="0"/>
</linearGradient>
</defs>
</svg>
