<svg width="108" height="98" viewBox="0 0 108 98" fill="none" xmlns="http://www.w3.org/2000/svg">
<path d="M53.9935 78.2412C72.1122 78.2412 86.8003 65.087 86.8003 48.8604C86.8003 32.6338 72.1122 19.4795 53.9935 19.4795C35.8747 19.4795 21.1865 32.6338 21.1865 48.8604C21.1865 65.087 35.8747 78.2412 53.9935 78.2412Z" fill="url(#paint0_linear)"/>
<path d="M102.19 63.3416C101.942 62.4149 101.465 61.5497 100.795 60.8098C100.124 60.0698 99.2773 59.4738 98.3158 59.0658C94.6822 57.4388 90.1929 58.8775 86.5894 60.0204C84.6375 60.6121 82.6706 61.2844 80.7787 62.0105C79.9649 62.3094 79.306 62.8707 78.932 63.5837C78.7393 63.9373 78.6292 64.3224 78.6086 64.7155C78.5879 65.1085 78.6571 65.5012 78.8118 65.8695C79.141 66.6018 79.7718 67.193 80.5737 67.5208C81.3757 67.8486 82.2875 67.888 83.121 67.6309C83.9768 67.3486 84.7876 67.0528 85.5534 66.7838C86.7545 66.367 87.8806 65.9636 88.8566 65.6678L90.0728 65.3451C92.2198 64.74 94.6522 64.0677 95.7783 64.4577C95.7783 64.4577 96.0185 64.619 96.1537 65.13C97.0695 67.1738 94.4871 68.9352 94.5021 68.9352C93.1508 69.5403 66.5299 83.8201 61.6501 86.7379C58.3319 89.0103 53.0919 87.8808 53.0468 87.8808L11.6215 78.1055V62.7366H58.6923C61.6952 62.7366 63.6321 63.3013 63.6321 64.2022C63.6304 64.8443 63.4095 65.4706 62.9988 65.997C62.5882 66.5234 62.0075 66.9246 61.3348 67.1469L43.7077 68.1419C42.8527 68.2702 42.0813 68.6782 41.5431 69.2869C41.0049 69.8955 40.7383 70.6615 40.7948 71.4362C40.9359 72.2017 41.3816 72.8957 42.0494 73.39C42.7173 73.8843 43.5623 74.1455 44.4284 74.1254L62.2657 72.6463H62.9865C65.0842 72.1181 66.9313 70.9899 68.2462 69.4337C69.561 67.8775 70.2712 65.9788 70.2685 64.0274C70.2685 62.2794 69.4277 56.6186 58.6923 56.6186H8.58851C8.14707 56.5994 7.7061 56.6631 7.29379 56.8056C6.88149 56.9481 6.50697 57.1663 6.19446 57.4462C5.88194 57.7261 5.63835 58.0614 5.47919 58.4306C5.32003 58.7999 5.24887 59.1948 5.27034 59.5902V80.2972C5.263 80.9355 5.48745 81.5586 5.90991 82.0727C6.33236 82.5869 6.92994 82.9642 7.61261 83.1477L51.6505 93.5012C52.9571 93.8009 54.2962 93.9723 55.6443 94.0122H56.2149C58.7673 94.0122 62.476 93.7702 65.0735 91.7129C68.2416 89.696 82.2352 82.1931 90.5983 77.7155C97.0246 74.2733 97.52 74.0044 97.55 73.9641C100.838 72.0278 104.066 68.0478 102.19 63.3416Z" fill="#0070C1"/>
<path d="M14.9258 20.3408H8.27441V29.7808H14.9258V20.3408Z" fill="#0070C1"/>
<path d="M89.8033 0.574504H18.2137C15.595 0.560303 13.0736 1.46257 11.1869 3.08903C10.2899 3.8454 9.57133 4.7551 9.07361 5.76437C8.57589 6.77365 8.30916 7.86204 8.28906 8.96522V10.4443V16.3743H14.9405V8.96522C15.0347 8.25931 15.4255 7.61203 16.0335 7.15494C16.6415 6.69786 17.4211 6.46528 18.2137 6.50448H89.8033C90.5727 6.54042 91.3086 6.79811 91.9011 7.23914C92.4937 7.68016 92.9112 8.28089 93.0915 8.95177V39.5429C92.9937 40.2499 92.5998 40.8973 91.9894 41.3542C91.379 41.811 90.5976 42.0431 89.8033 42.0036H18.2137C17.8167 42.0387 17.4159 42.0026 17.0346 41.8974C16.6534 41.7923 16.2993 41.6201 15.9932 41.391C15.6871 41.1619 15.435 40.8805 15.2516 40.5632C15.0683 40.2459 14.9575 39.899 14.9255 39.5429V35.0517H8.28906V39.5429C8.39824 41.8233 9.49614 43.9757 11.3494 45.5426C13.2027 47.1094 15.6653 47.9672 18.2137 47.9336H89.8033C92.3868 47.9346 94.8689 47.0333 96.7221 45.4213C98.5754 43.8093 99.6536 41.6136 99.7279 39.3009V8.96522C99.7029 7.82749 99.425 6.70563 98.9105 5.66516C98.3959 4.6247 97.655 3.68649 96.731 2.90533C95.8071 2.12417 94.7185 1.51572 93.5291 1.11553C92.3396 0.715331 91.073 0.531409 89.8033 0.574504Z" fill="#0070C1"/>
<defs>
<linearGradient id="paint0_linear" x1="53.9934" y1="19.4795" x2="53.9934" y2="78.2412" gradientUnits="userSpaceOnUse">
<stop stop-color="#FFC700"/>
<stop offset="1" stop-color="white" stop-opacity="0"/>
</linearGradient>
</defs>
</svg>
