<svg width="111" height="100" viewBox="0 0 111 100" fill="none" xmlns="http://www.w3.org/2000/svg">
<path d="M55.2935 60.9561C73.8433 60.9561 88.8809 47.489 88.8809 30.8765C88.8809 14.2639 73.8433 0.796875 55.2935 0.796875C36.7437 0.796875 21.7061 14.2639 21.7061 30.8765C21.7061 47.489 36.7437 60.9561 55.2935 60.9561Z" fill="url(#paint0_linear)"/>
<path d="M82.9917 85.9839L62.4089 93.3076C57.758 94.8017 52.6718 94.8017 48.0209 93.3076L27.5917 85.9839C27.2596 85.8639 26.9046 85.8029 26.5465 85.8047C25.8619 85.8066 25.1992 86.0205 24.6706 86.41C24.142 86.7995 23.7801 87.3407 23.6462 87.9419C23.5123 88.5431 23.6146 89.1674 23.9359 89.7087C24.2572 90.2501 24.7776 90.675 25.4089 90.9119L45.8227 98.2356C51.8795 100.237 58.5348 100.237 64.5917 98.2356L85.2206 90.8985C85.9119 90.614 86.4548 90.1025 86.737 89.4698C87.0192 88.8371 87.0192 88.1313 86.737 87.4986C86.4547 86.8659 85.9119 86.3544 85.2206 86.0699C84.5293 85.7854 83.7424 85.7498 83.0224 85.9701L82.9917 85.9839Z" fill="#0070C1"/>
<path d="M55.2933 50.3574C51.6261 50.3574 48.0413 49.3833 44.9923 47.5584C41.9433 45.7335 39.5672 43.1398 38.1645 40.1053C36.7619 37.0707 36.3957 33.7318 37.1122 30.5108C37.8288 27.2899 39.5959 24.3316 42.1901 22.0102C44.7843 19.6889 48.0889 18.1088 51.686 17.4697C55.2831 16.8307 59.0111 17.1613 62.3983 18.42C65.7854 19.6787 68.6797 21.809 70.7148 24.541C72.75 27.2731 73.8347 30.4844 73.8317 33.7686C73.8235 38.1684 71.8673 42.3856 68.392 45.4954C64.9167 48.6052 60.206 50.3538 55.2933 50.3574ZM55.2933 23.0857C52.934 23.0857 50.6278 23.7124 48.6661 24.8862C46.7045 26.0601 45.1756 27.7285 44.2727 29.6805C43.3699 31.6325 43.1337 33.7805 43.5939 35.8528C44.0542 37.925 45.1903 39.8286 46.8585 41.3226C48.5268 42.8166 50.6522 43.8339 52.9661 44.2461C55.2801 44.6583 57.6785 44.4469 59.8581 43.6383C62.0378 42.8298 63.9008 41.4606 65.2115 39.7038C66.5222 37.947 67.2218 35.8815 67.2218 33.7686C67.2177 30.9365 65.9597 28.2213 63.7235 26.2187C61.4874 24.216 58.4557 23.0894 55.2933 23.0857Z" fill="#0070C1"/>
<path d="M55.2923 84.2358L53.0173 82.3083C51.5723 81.0831 17.6621 52.1048 17.6621 34.057C17.6621 25.1118 21.6299 16.533 28.6927 10.2078C35.7555 3.88259 45.3347 0.329102 55.323 0.329102C65.3113 0.329102 74.8905 3.88259 81.9533 10.2078C89.0161 16.533 92.9839 25.1118 92.9839 34.057C92.9839 52.1048 59.0737 81.0831 57.6288 82.3083L55.2923 84.2358ZM55.2923 6.27631C47.0662 6.28359 39.1793 9.21231 33.3612 14.4202C27.5431 19.6282 24.2688 26.69 24.2566 34.057C24.2566 45.9925 44.8855 66.78 55.2923 76.0311C65.6836 66.78 86.3125 45.9787 86.3125 34.057C86.3044 26.6913 83.0336 19.6294 77.218 14.4211C71.4023 9.21276 63.5169 6.2836 55.2923 6.27631Z" fill="#0070C1"/>
<defs>
<linearGradient id="paint0_linear" x1="55.2935" y1="0.796875" x2="55.2935" y2="60.9561" gradientUnits="userSpaceOnUse">
<stop stop-color="#FFC700"/>
<stop offset="1" stop-color="white" stop-opacity="0"/>
</linearGradient>
</defs>
</svg>
